<?xml version="1.0" standalone="no"?>
<!DOCTYPE svg PUBLIC "-//W3C//DTD SVG 20010904//EN"
 "http://www.w3.org/TR/2001/REC-SVG-20010904/DTD/svg10.dtd">
<svg version="1.0" xmlns="http://www.w3.org/2000/svg"
 width="500.000000pt" height="500.000000pt" viewBox="0 0 500.000000 500.000000"
 preserveAspectRatio="xMidYMid meet">
<metadata>
Created by potrace 1.15, written by Peter Selinger 2001-2017
</metadata>
<g transform="translate(0.000000,500.000000) scale(0.100000,-0.100000)"
fill="#000000" stroke="none">
<path d="M2449 4805 l-86 -85 -219 0 -219 0 -155 -155 -155 -155 -122 0 -123
0 0 -123 0 -122 -150 -150 -150 -150 0 -219 0 -219 -89 -91 -90 -91 90 -91 89
-91 0 -217 0 -217 150 -146 150 -145 0 -129 0 -129 126 0 127 0 149 -155 150
-155 221 0 222 0 87 -87 88 -88 88 88 87 87 215 0 215 0 155 155 155 155 127
0 128 0 0 128 0 127 150 150 150 150 0 215 0 215 90 90 90 89 -90 92 -90 91 0
219 0 219 -150 150 -150 150 0 122 0 123 -123 0 -122 0 -155 155 -155 155
-220 0 -220 0 -85 85 c-47 47 -87 85 -90 85 -3 0 -44 -38 -91 -85z m-184 -185
l-39 -40 -116 0 -115 0 -85 -85 -85 -85 -57 0 c-32 0 -58 3 -58 7 0 4 53 61
117 125 l118 118 179 0 180 0 -39 -40z m470 0 l39 -40 -234 0 -234 0 39 40 39
40 156 0 156 0 39 -40z m515 -85 l125 -125 -60 0 -60 0 -85 85 -85 85 -115 0
-116 0 -39 40 -39 40 175 0 174 0 125 -125z m-1142 -70 l-56 -55 -73 0 -73 0
54 55 54 55 76 0 75 0 -57 -55z m782 0 l54 -55 -404 0 -404 0 54 55 54 55 296
0 296 0 54 -55z m230 0 l54 -55 -75 0 -75 0 -54 55 -54 55 75 0 75 0 54 -55z
m-1350 -108 c0 -1 -76 -79 -170 -172 l-170 -170 0 65 0 64 108 108 108 108 62
0 c34 0 62 -1 62 -3z m220 -5 c0 -4 -126 -133 -280 -287 l-280 -280 0 75 0 75
212 212 213 213 67 0 c38 0 68 -3 68 -8z m1332 -319 l328 -328 0 -455 0 -455
-328 -328 -327 -327 -455 0 -455 0 -327 327 -328 328 0 455 0 455 327 327 328
328 455 0 455 0 327 -327z m116 114 l213 -213 -3 -72 -3 -72 -285 285 -285
285 75 0 75 0 213 -213z m100 100 l113 -113 -3 -57 -3 -57 -170 170 -170 170
60 0 60 0 113 -113z m-2247 -371 l-81 -81 0 -115 0 -114 -37 -38 c-20 -21 -41
-38 -45 -38 -4 0 -8 77 -8 172 l0 171 123 124 122 124 3 -62 3 -63 -80 -80z
m2669 -225 l0 -175 -45 44 -45 44 0 116 0 115 -80 80 -80 80 0 60 0 60 125
-125 125 -125 0 -174z m-2590 -403 l0 -392 -50 49 -50 49 0 295 0 295 47 48
c26 26 49 48 50 48 2 0 3 -176 3 -392z m2440 2 l0 -296 -50 -49 -50 -49 0 394
0 394 50 -49 50 -49 0 -296z m-2600 -2 l0 -232 -45 44 -45 44 0 145 0 145 42
43 c23 24 43 43 45 43 2 0 3 -104 3 -232z m2750 2 l0 -146 -45 -44 -45 -44 0
234 0 234 45 -44 45 -44 0 -146z m-2750 -440 l0 -115 80 -80 80 -80 0 -60 0
-60 -125 125 -125 125 0 174 0 175 45 -44 45 -44 0 -116z m2625 -270 l-125
-125 0 60 0 60 80 80 80 80 0 114 0 115 43 44 42 43 3 -173 2 -172 -125 -126z
m-1914 -398 l-69 -3 -211 213 -210 213 -1 70 0 70 280 -280 280 -280 -69 -3z
m1517 211 l-213 -213 -70 0 -70 0 280 280 280 280 3 -67 3 -67 -213 -213z
m-1735 -211 l-57 -3 -108 108 -108 108 0 60 0 60 165 -165 165 -165 -57 -3z
m1840 106 l-108 -108 -60 0 -60 0 165 165 165 165 3 -57 3 -57 -108 -108z
m-1638 -248 l80 -80 115 0 116 0 44 -45 44 -45 -175 0 -174 0 -125 125 -125
125 60 0 60 0 80 -80z m980 30 l-49 -50 -296 0 -296 0 -49 50 -49 50 394 0
394 0 -49 -50z m365 -75 l-125 -125 -174 0 -175 0 44 45 44 45 116 0 115 0 80
80 80 80 60 0 60 0 -125 -125z m-520 -80 l-44 -45 -146 0 -146 0 -44 45 -44
45 234 0 234 0 -44 -45z"/>
<path d="M481 1360 c-148 -23 -257 -101 -311 -222 -54 -123 -78 -340 -60 -549
18 -217 70 -341 175 -421 160 -122 486 -114 689 16 l56 36 0 275 0 275 -210 0
-210 0 0 -110 0 -110 85 0 85 0 0 -101 0 -100 -47 -22 c-70 -32 -203 -31 -255
1 -46 29 -72 71 -93 148 -23 84 -23 414 0 499 33 123 89 169 206 168 117 0
162 -47 182 -190 l10 -73 124 0 123 0 0 70 c0 219 -99 358 -284 400 -66 15
-203 20 -265 10z"/>
<path d="M1476 1359 c-105 -17 -179 -64 -221 -141 -28 -49 -30 -60 -29 -153 1
-110 14 -157 64 -232 l31 -45 -55 -55 c-31 -30 -68 -81 -83 -112 -26 -52 -28
-65 -28 -176 0 -102 3 -127 21 -166 65 -139 208 -211 390 -195 90 7 183 30
238 58 l40 20 28 -31 28 -31 150 0 151 0 -85 99 c-48 54 -86 103 -86 109 0 6
16 34 35 64 56 84 104 236 105 326 l0 32 -129 0 -128 0 -7 -52 c-9 -68 -36
-168 -46 -168 -5 0 -51 51 -104 114 l-95 114 47 28 c73 43 147 119 173 177 26
60 31 176 9 241 -44 132 -222 208 -414 175z m154 -224 c30 -31 32 -98 5 -139
-19 -28 -90 -86 -106 -86 -14 0 -48 74 -55 119 -13 83 19 131 89 131 33 0 49
-6 67 -25z m-31 -680 c55 -66 101 -123 101 -127 0 -13 -82 -30 -143 -29 -91 0
-143 46 -153 137 -7 57 6 109 38 149 25 32 12 43 157 -130z"/>
<path d="M2661 1360 c-148 -23 -257 -101 -311 -222 -54 -123 -78 -340 -60
-549 18 -217 70 -341 175 -421 160 -122 486 -114 689 16 l56 36 0 275 0 275
-210 0 -210 0 0 -110 0 -110 85 0 85 0 0 -101 0 -100 -47 -22 c-70 -32 -203
-31 -255 1 -46 29 -72 71 -93 148 -23 84 -23 414 0 499 33 123 89 169 206 168
117 0 162 -47 182 -190 l10 -73 124 0 123 0 0 70 c0 219 -99 358 -284 400 -66
15 -203 20 -265 10z"/>
<path d="M3650 1240 l0 -110 140 0 140 0 0 -515 0 -515 130 0 130 0 2 512 3
513 143 3 142 3 0 109 0 110 -415 0 -415 0 0 -110z"/>
<path d="M4610 725 l0 -625 125 0 125 0 0 625 0 625 -125 0 -125 0 0 -625z"/>
</g>
</svg>
