<?xml version="1.0" standalone="no"?>
<!DOCTYPE svg PUBLIC "-//W3C//DTD SVG 20010904//EN"
 "http://www.w3.org/TR/2001/REC-SVG-20010904/DTD/svg10.dtd">
<svg version="1.0" xmlns="http://www.w3.org/2000/svg"
 width="561.000000pt" height="477.000000pt" viewBox="0 0 561.000000 477.000000"
 preserveAspectRatio="xMidYMid meet">
<metadata>
Created by potrace 1.15, written by Peter Selinger 2001-2017
</metadata>
<g transform="translate(0.000000,477.000000) scale(0.100000,-0.100000)"
fill="#000000" stroke="none">
<path d="M2427 4140 c-83 -21 -138 -65 -251 -200 -131 -157 -164 -182 -335
-250 -141 -56 -190 -82 -234 -125 -71 -69 -89 -135 -116 -420 -12 -124 -32
-173 -139 -345 -73 -118 -95 -177 -95 -255 0 -75 22 -133 98 -255 126 -205
127 -208 145 -423 24 -293 60 -345 310 -448 210 -86 231 -101 362 -258 82 -98
148 -159 203 -189 51 -28 188 -22 320 13 156 42 294 42 450 0 144 -39 258 -41
323 -7 57 30 121 90 189 174 119 150 170 186 373 268 173 70 249 138 279 245
6 22 18 115 26 207 16 179 32 239 85 322 17 25 44 67 61 94 93 145 118 257 81
362 -11 30 -56 115 -100 187 -44 73 -88 155 -97 182 -8 26 -22 118 -29 202 -8
85 -22 183 -31 217 -31 110 -107 172 -310 252 -169 67 -218 104 -364 283 -78
95 -138 140 -214 162 -68 20 -107 16 -282 -27 -188 -46 -233 -47 -412 -4 -174
41 -242 49 -296 36z m993 -811 c45 -47 80 -129 87 -210 6 -62 -21 -219 -40
-231 -7 -4 -25 -8 -42 -8 -27 0 -34 7 -64 65 -85 166 -289 258 -501 227 -244
-35 -429 -213 -502 -482 -18 -70 -22 -110 -22 -225 1 -121 4 -153 28 -240 55
-199 143 -318 296 -402 100 -56 152 -68 290 -67 110 0 134 3 197 26 233 85
371 286 397 576 l6 72 -240 0 -240 0 0 35 0 35 274 0 c243 0 275 -2 280 -16 3
-9 4 -53 0 -98 -33 -439 -288 -706 -674 -706 -196 0 -336 57 -471 190 -102
101 -156 198 -196 348 -22 83 -26 119 -26 247 -1 125 3 164 22 235 71 268 241
454 485 529 76 23 245 29 326 10 117 -27 260 -129 313 -222 18 -32 22 -35 28
-20 4 10 8 50 8 88 1 81 -26 151 -78 199 -36 34 -37 42 -14 68 23 25 28 23 73
-23z"/>
<path d="M2409 711 c-27 -27 -29 -35 -28 -98 1 -106 13 -174 34 -190 12 -8 41
-12 80 -11 l60 3 0 85 0 85 -40 0 c-34 0 -40 -3 -43 -23 -2 -13 3 -25 12 -28
20 -8 21 -48 1 -64 -12 -10 -18 -10 -30 0 -13 10 -15 32 -13 109 3 95 3 96 28
96 18 0 26 -6 28 -22 2 -17 10 -23 27 -23 32 0 39 14 25 54 -20 60 -93 74
-141 27z"/>
<path d="M2653 725 c-52 -22 -69 -78 -37 -123 15 -21 15 -25 0 -41 -67 -74 21
-184 110 -138 25 13 32 13 49 1 24 -18 34 -18 42 2 3 9 -3 21 -16 30 -26 19
-30 88 -5 98 9 3 14 15 12 28 -3 21 -8 23 -49 20 -65 -4 -99 11 -99 43 0 32
28 45 46 21 15 -21 47 -18 52 5 4 20 -27 56 -53 63 -11 3 -34 -1 -52 -9z"/>
<path d="M2886 718 c-28 -24 -28 -24 -27 -143 2 -107 4 -122 23 -142 18 -19
30 -22 85 -21 l64 2 -3 86 c-3 92 -9 99 -64 86 -27 -7 -33 -40 -9 -50 21 -8
20 -62 -2 -70 -30 -12 -43 21 -43 105 0 43 3 84 6 93 10 25 43 19 54 -9 7 -18
17 -25 35 -25 21 0 25 5 25 29 0 42 -28 71 -76 78 -33 4 -45 1 -68 -19z"/>
<path d="M3225 720 c-9 -28 2 -40 36 -40 l29 0 0 -135 0 -135 24 0 c13 0 27 7
30 16 3 9 6 69 6 134 l0 119 28 3 c21 2 28 9 30 31 l3 27 -90 0 c-81 0 -90 -2
-96 -20z"/>
<path d="M3465 728 c-3 -8 -4 -81 -3 -163 l3 -150 28 -3 28 -3 -3 163 c-3 161
-3 163 -26 166 -12 2 -24 -3 -27 -10z"/>
</g>
</svg>
